<svg xmlns="http://www.w3.org/2000/svg" width="12.311" height="12.312" viewBox="0 0 12.311 12.312"><defs><style>.a{fill:#e02424;}</style></defs><path class="a" d="M35.955,33.983l-3.861-3.859,3.858-3.861a1.129,1.129,0,0,0,0-1.6L35.6,24.3a1.114,1.114,0,0,0-.8-.334h0a1.123,1.123,0,0,0-.8.333l-3.86,3.863-3.861-3.858a1.129,1.129,0,0,0-1.6,0l-.359.356a1.133,1.133,0,0,0,0,1.606l3.863,3.86-3.859,3.861a1.13,1.13,0,0,0,0,1.6l.358.358a1.119,1.119,0,0,0,.8.334,1.134,1.134,0,0,0,.8-.333l3.859-3.862,3.86,3.857a1.133,1.133,0,0,0,1.6,0l.358-.358a1.134,1.134,0,0,0,0-1.6Z" transform="translate(-23.977 -23.969)"/></svg>