<?xml version="1.0" encoding="utf-8"?>
<!-- Generator: Adobe Illustrator 22.1.0, SVG Export Plug-In . SVG Version: 6.00 Build 0)  -->
<svg version="1.1" id="Layer_1" xmlns="http://www.w3.org/2000/svg" xmlns:xlink="http://www.w3.org/1999/xlink" x="0px" y="0px"
	 width="56.4px" height="59.9px" viewBox="0 0 56.4 59.9" style="enable-background:new 0 0 56.4 59.9;" xml:space="preserve">
<style type="text/css">
	.st0{fill:#FFFFFF;}
</style>
<path class="st0" d="M26.1,8.3v3h4.1v-3h11.5v3h4.1v-3h6.4v7.5H4.1V8.3h6.4v3h4.1v-3H26.1z M52.2,52.6c0,1.8-1.4,3.2-3.2,3.2H4.1V20
	h48.1L52.2,52.6z M10.5,0v4.2H0V20h0v39.9h49.1c4,0,7.3-3.3,7.3-7.3V15.8h0l0-11.7H45.9V0h-4.1v4.2H30.2V0h-4.1v4.2H14.6V0L10.5,0z"
	/>
<rect x="11.9" y="26.8" class="st0" width="6.2" height="4.1"/>
<rect x="24.8" y="26.8" class="st0" width="6.7" height="4.1"/>
<rect x="38.3" y="26.8" class="st0" width="6.2" height="4.1"/>
<rect x="11.9" y="35.8" class="st0" width="6.2" height="4.1"/>
<rect x="24.8" y="35.8" class="st0" width="6.7" height="4.1"/>
<rect x="38.3" y="35.8" class="st0" width="6.2" height="4.1"/>
<rect x="11.9" y="44.9" class="st0" width="6.2" height="4.1"/>
<rect x="24.8" y="44.9" class="st0" width="6.7" height="4.1"/>
<rect x="38.3" y="44.9" class="st0" width="6.2" height="4.1"/>
</svg>
